<svg width="24" height="24" viewBox="0 0 24 24" fill="none" xmlns="http://www.w3.org/2000/svg">
<path d="M4.80775 20.3845C4.31058 20.3845 3.885 20.2075 3.531 19.8535C3.177 19.4995 3 19.0739 3 18.5768V5.19225C3 4.69508 3.177 4.2695 3.531 3.9155C3.885 3.5615 4.31058 3.3845 4.80775 3.3845H12.75C12.9625 3.3845 13.1406 3.45642 13.2843 3.60025C13.4281 3.74408 13.5 3.92225 13.5 4.13475C13.5 4.34742 13.4281 4.5255 13.2843 4.669C13.1406 4.81267 12.9625 4.8845 12.75 4.8845H4.80775C4.71792 4.8845 4.64417 4.91333 4.5865 4.971C4.52883 5.02867 4.5 5.10242 4.5 5.19225V18.5768C4.5 18.6666 4.52883 18.7403 4.5865 18.798C4.64417 18.8557 4.71792 18.8845 4.80775 18.8845H18.1923C18.2819 18.8845 18.3557 18.8557 18.4135 18.798C18.4712 18.7403 18.5 18.6666 18.5 18.5768V10.6345C18.5 10.422 18.5719 10.2438 18.7158 10.1C18.8594 9.95633 19.0376 9.8845 19.2502 9.8845C19.4629 9.8845 19.641 9.95633 19.7845 10.1C19.9282 10.2438 20 10.422 20 10.6345V18.5768C20 19.0739 19.823 19.4995 19.469 19.8535C19.115 20.2075 18.6894 20.3845 18.1923 20.3845H4.80775ZM16.8845 6.49975H15.6345C15.422 6.49975 15.2439 6.42792 15.1003 6.28425C14.9564 6.14042 14.8845 5.96217 14.8845 5.7495C14.8845 5.537 14.9564 5.35892 15.1003 5.21525C15.2439 5.07175 15.422 5 15.6345 5H16.8845V3.74975C16.8845 3.53742 16.9564 3.35933 17.1003 3.2155C17.2441 3.07183 17.4223 3 17.635 3C17.8475 3 18.0256 3.07183 18.1693 3.2155C18.3128 3.35933 18.3845 3.53742 18.3845 3.74975V5H19.6345C19.847 5 20.0252 5.07183 20.169 5.2155C20.3127 5.35933 20.3845 5.53758 20.3845 5.75025C20.3845 5.96275 20.3127 6.14083 20.169 6.2845C20.0252 6.428 19.847 6.49975 19.6345 6.49975H18.3845V7.74975C18.3845 7.96225 18.3126 8.14042 18.1687 8.28425C18.0249 8.42792 17.8468 8.49975 17.6342 8.49975C17.4216 8.49975 17.2435 8.42792 17.1 8.28425C16.9563 8.14042 16.8845 7.96225 16.8845 7.74975V6.49975ZM10.7308 15.9038L9.09225 13.8038C8.99858 13.6896 8.87967 13.6325 8.7355 13.6325C8.59133 13.6325 8.47242 13.6928 8.37875 13.8135L6.802 15.9115C6.6815 16.0653 6.66558 16.2243 6.75425 16.3883C6.84308 16.5524 6.97625 16.6345 7.15375 16.6345H15.923C16.1005 16.6345 16.2337 16.5524 16.3225 16.3883C16.4113 16.2243 16.3987 16.0653 16.2845 15.9115L13.9 12.7172C13.8063 12.5968 13.6858 12.5365 13.5383 12.5365C13.3909 12.5365 13.2703 12.5976 13.1762 12.7198L10.7308 15.9038Z" fill="#7B7B7B"/>
</svg>
