<svg width="24" height="24" viewBox="0 0 24 24" fill="none" xmlns="http://www.w3.org/2000/svg">
<path d="M5.30775 16.5C4.80908 16.5 4.38308 16.3234 4.02975 15.9702C3.67658 15.6169 3.5 15.1909 3.5 14.6922V9.30774C3.5 8.80907 3.67658 8.38307 4.02975 8.02974C4.38308 7.67657 4.80908 7.49999 5.30775 7.49999H18.6923C19.1909 7.49999 19.6169 7.67657 19.9703 8.02974C20.3234 8.38307 20.5 8.80907 20.5 9.30774V14.6922C20.5 15.1909 20.3234 15.6169 19.9703 15.9702C19.6169 16.3234 19.1909 16.5 18.6923 16.5H5.30775ZM5.30775 15H18.6923C18.7821 15 18.8558 14.9712 18.9135 14.9135C18.9712 14.8558 19 14.7821 19 14.6922V9.30774C19 9.21791 18.9712 9.14416 18.9135 9.08649C18.8558 9.02882 18.7821 8.99999 18.6923 8.99999H5.30775C5.21792 8.99999 5.14417 9.02882 5.0865 9.08649C5.02883 9.14416 5 9.21791 5 9.30774V14.6922C5 14.7821 5.02883 14.8558 5.0865 14.9135C5.14417 14.9712 5.21792 15 5.30775 15ZM4.225 5.30774C4.01867 5.30774 3.84625 5.23591 3.70775 5.09224C3.56925 4.94874 3.5 4.77057 3.5 4.55774C3.5 4.34491 3.57183 4.16674 3.7155 4.02324C3.859 3.87957 4.03717 3.80774 4.25 3.80774H19.775C19.9813 3.80774 20.1537 3.87957 20.2922 4.02324C20.4307 4.16674 20.5 4.34491 20.5 4.55774C20.5 4.77057 20.4282 4.94874 20.2845 5.09224C20.141 5.23591 19.9628 5.30774 19.75 5.30774H4.225ZM4.225 20.1922C4.01867 20.1922 3.84625 20.1204 3.70775 19.9767C3.56925 19.8332 3.5 19.6551 3.5 19.4422C3.5 19.2294 3.57183 19.0512 3.7155 18.9077C3.859 18.7641 4.03717 18.6922 4.25 18.6922H19.775C19.9813 18.6922 20.1537 18.7641 20.2922 18.9077C20.4307 19.0512 20.5 19.2294 20.5 19.4422C20.5 19.6551 20.4282 19.8332 20.2845 19.9767C20.141 20.1204 19.9628 20.1922 19.75 20.1922H4.225ZM5 8.99999H5.30775C5.21792 8.99999 5.14417 9.02882 5.0865 9.08649C5.02883 9.14416 5 9.21791 5 9.30774V14.6922C5 14.7821 5.02883 14.8558 5.0865 14.9135C5.14417 14.9712 5.21792 15 5.30775 15H5V8.99999Z" fill="#E9E9E9"/>
</svg>
