<svg width="24" height="24" viewBox="0 0 24 24" fill="none" xmlns="http://www.w3.org/2000/svg">
<path d="M6.16585 14.5538L5.3081 16.9808C5.25427 17.1256 5.16993 17.2369 5.0551 17.3146C4.94043 17.3921 4.81068 17.4308 4.66585 17.4308C4.41968 17.4308 4.22827 17.3305 4.0916 17.1298C3.9551 16.9291 3.93235 16.7161 4.02335 16.4906L7.4351 7.2808C7.48893 7.13597 7.57735 7.02222 7.70035 6.93955C7.82352 6.85689 7.95752 6.81555 8.10235 6.81555H8.63885C8.78368 6.81555 8.92018 6.85689 9.04835 6.93955C9.17652 7.02222 9.2676 7.13597 9.3216 7.2808L12.7619 16.4963C12.8528 16.7218 12.8259 16.934 12.6811 17.1328C12.5363 17.3315 12.3458 17.4308 12.1099 17.4308C11.965 17.4308 11.832 17.3879 11.7109 17.3021C11.5897 17.2161 11.5022 17.1006 11.4484 16.9558L10.6061 14.5538H6.16585ZM6.62535 13.3001H10.1409L8.41585 8.41355H8.33485L6.62535 13.3001ZM16.3849 17.6713C15.5734 17.6713 14.9256 17.4485 14.4416 17.0028C13.9576 16.5573 13.7156 15.9852 13.7156 15.2866C13.7156 14.5661 13.9984 13.9811 14.5638 13.5318C15.1292 13.0825 15.8554 12.8578 16.7426 12.8578C17.1131 12.8578 17.4817 12.8927 17.8483 12.9626C18.215 13.0324 18.5349 13.1289 18.8081 13.2521V12.8078C18.8081 12.2411 18.6404 11.7981 18.3051 11.4788C17.9699 11.1596 17.5029 11.0001 16.9041 11.0001C16.6413 11.0001 16.3826 11.0407 16.1281 11.1221C15.8738 11.2036 15.6402 11.3193 15.4274 11.4693C15.2619 11.5975 15.1041 11.6397 14.9541 11.5961C14.8041 11.5526 14.6836 11.4737 14.5926 11.3596C14.5016 11.2456 14.4594 11.1161 14.4658 10.9713C14.4722 10.8263 14.551 10.7 14.7024 10.5923C15.0164 10.3576 15.3657 10.1842 15.7503 10.0721C16.135 9.95989 16.5248 9.9038 16.9196 9.9038C17.9734 9.9038 18.758 10.1618 19.2733 10.6778C19.7887 11.194 20.0464 11.9681 20.0464 13.0001V16.8193C20.0464 16.9911 19.9848 17.136 19.8618 17.2538C19.7389 17.3718 19.5914 17.4308 19.4196 17.4308C19.2478 17.4308 19.1028 17.3693 18.9848 17.2463C18.867 17.1231 18.8081 16.9756 18.8081 16.8038V16.4578H18.7081C18.4491 16.8603 18.1244 17.1631 17.7341 17.3663C17.3436 17.5696 16.8939 17.6713 16.3849 17.6713ZM16.5696 16.5906C17.2043 16.5906 17.7385 16.3681 18.1723 15.9231C18.6063 15.4782 18.8233 14.9379 18.8233 14.3021C18.59 14.1687 18.3028 14.0646 17.9619 13.9896C17.6209 13.9146 17.2856 13.8771 16.9561 13.8771C16.3586 13.8771 15.8874 14.0017 15.5426 14.2511C15.1978 14.5004 15.0254 14.8456 15.0254 15.2866C15.0254 15.6584 15.1699 15.9686 15.4589 16.2173C15.748 16.4661 16.1183 16.5906 16.5696 16.5906Z" fill="#E9E9E9"/>
</svg>
