<svg width="24" height="24" viewBox="0 0 24 24" fill="none" xmlns="http://www.w3.org/2000/svg">
<path d="M6.24975 16.75C6.03708 16.75 5.859 16.6781 5.7155 16.5343C5.57183 16.3906 5.5 16.2125 5.5 16V8C5.5 7.7875 5.57192 7.60942 5.71575 7.46575C5.85958 7.32192 6.03775 7.25 6.25025 7.25C6.46292 7.25 6.641 7.32192 6.7845 7.46575C6.92817 7.60942 7 7.7875 7 8V11.25H11.5V8C11.5 7.7875 11.5719 7.60942 11.7158 7.46575C11.8596 7.32192 12.0378 7.25 12.2503 7.25C12.4629 7.25 12.641 7.32192 12.7845 7.46575C12.9282 7.60942 13 7.7875 13 8V16C13 16.2125 12.9281 16.3906 12.7842 16.5343C12.6404 16.6781 12.4622 16.75 12.2497 16.75C12.0371 16.75 11.859 16.6781 11.7155 16.5343C11.5718 16.3906 11.5 16.2125 11.5 16V12.75H7V16C7 16.2125 6.92808 16.3906 6.78425 16.5343C6.64042 16.6781 6.46225 16.75 6.24975 16.75ZM17.7498 16.75C17.5371 16.75 17.359 16.6781 17.2155 16.5343C17.0718 16.3906 17 16.2125 17 16V8.75H15.75C15.5375 8.75 15.3593 8.67808 15.2155 8.53425C15.0718 8.39042 15 8.21225 15 7.99975C15 7.78708 15.0718 7.609 15.2155 7.4655C15.3593 7.32183 15.5375 7.25 15.75 7.25H17.5913C17.8523 7.25 18.0689 7.33658 18.2413 7.50975C18.4138 7.68308 18.5 7.89775 18.5 8.15375V16C18.5 16.2125 18.4281 16.3906 18.2843 16.5343C18.1404 16.6781 17.9622 16.75 17.7498 16.75Z" fill="#E9E9E9"/>
</svg>
