<svg width="24" height="24" viewBox="0 0 24 24" fill="none" xmlns="http://www.w3.org/2000/svg">
<path d="M8.2002 14C8.0502 14 7.92936 13.95 7.8377 13.85C7.74603 13.75 7.7002 13.6334 7.7002 13.5C7.7002 13.4667 7.7502 13.35 7.8502 13.15L11.4752 9.52505C11.5585 9.44172 11.6419 9.38338 11.7252 9.35005C11.8085 9.31672 11.9002 9.30005 12.0002 9.30005C12.1002 9.30005 12.1919 9.31672 12.2752 9.35005C12.3585 9.38338 12.4419 9.44172 12.5252 9.52505L16.1502 13.15C16.2002 13.2 16.2377 13.2542 16.2627 13.3125C16.2877 13.3709 16.3002 13.4334 16.3002 13.5C16.3002 13.6334 16.2544 13.75 16.1627 13.85C16.071 13.95 15.9502 14 15.8002 14H8.2002Z" fill="#434343"/>
</svg>
